<?xml version="1.0" encoding="UTF-8"?>
<svg id="Layer_2" data-name="Layer 2" xmlns="http://www.w3.org/2000/svg" viewBox="0 0 44.39 55.14">
  <defs>
    <style>
      .cls-1 {
        fill: #1a1a1a;
      }
    </style>
  </defs>
  <g id="Layer_2-2" data-name="Layer 2">
    <path class="cls-1" d="M14.38,54.54l-13.38.6L0,.14l24.16-.14c4.14,0,7.26.59,9.35,1.78,2.09,1.19,3.75,2.91,4.97,5.17,1.22,2.26,1.84,4.71,1.84,7.35,0,2.15-.42,4.2-1.24,6.16-.83,1.96-1.99,3.73-3.48,5.31-1.49,1.58-3.8,3-6.92,4.24,1.17.64,2.04,1.25,2.63,1.84.58.58,1.3,1.54,2.15,2.85.85,1.32,1.59,2.54,2.23,3.67l8.7,16.16h-8.14l-7.57-14.35c-1.81-3.47-4.18-6.5-7.12-9.1h-7.18v23.45ZM14.38,25.66h6.95c2.9,0,5.12-.45,6.64-1.36,1.53-.9,2.73-2.22,3.62-3.96.88-1.73,1.33-3.58,1.33-5.54,0-1.7-.35-3.22-1.05-4.58s-1.73-2.49-3.11-3.39-3.68-1.36-6.92-1.36h-7.46v20.18Z"/>
  </g>
</svg>