<?xml version="1.0" encoding="UTF-8"?>
<svg id="Layer_2" data-name="Layer 2" xmlns="http://www.w3.org/2000/svg" viewBox="0 0 202 202">
  <defs>
    <style>
      .cls-1 {
        fill: none;
        stroke: #fff;
        stroke-miterlimit: 10;
        stroke-width: 3px;
      }

      .cls-2 {
        fill: #fff;
      }

      .cls-3 {
        fill: #1a1a1a;
      }
    </style>
  </defs>
  <g id="Layer_2-2" data-name="Layer 2">
    <rect width="202" height="202"/>
    <circle class="cls-2" cx="100.5" cy="100" r="70"/>
    <path class="cls-3" d="M116.17,67.7s-2.74-1.35-8.12,0c0,0-6.41-2.87-15.47,9.94l2.25-.62-3.11,8.55,1.43,2.29h0c1.7,2.87,5.27,8.85,7.12,13.05,1.45-3.47,2.23-6.09,3.88-9.14l3.83-6.33c.13-.2.26-.39.4-.59l-.21-1.94c-.34-1.68-1.33-4.11-1.25-5.8.05-.31.12-.63.2-.95,0-.01,0-.02.01-.03h0c.82-3.02,3.24-6.21,9.04-8.43Z"/>
    <path class="cls-3" d="M56.82,58.82l13.22,45.46c15.28,11.64,15.15,11.7,22.92,25.35-.84-3.47,3.91-23.26,5.68-25.52-8.18-17.51-22.72-32.99-41.82-45.28Z"/>
    <path class="cls-3" d="M106.94,132.35c5.05-13.26,8.16-18.72,23.69-28.08l13.13-45.43c-28.77,18.59-47.24,44.55-48.97,73.45l12.15.06Z"/>
    <path class="cls-1" d="M62.85,83.55s22.81,14.28,33,32.71"/>
    <path class="cls-1" d="M101.29,133.32s6.12-38.89,39.41-53.22"/>
    <g>
      <path class="cls-3" d="M67.85,149.39l-3.04.04v-10.13l4.85.05c.76,0,1.34.11,1.72.33.39.22.69.54.92.95.23.42.34.87.34,1.35,0,.4-.08.77-.23,1.13-.15.36-.37.69-.64.98-.27.29-.7.55-1.28.78.22.12.38.23.48.34.11.11.24.28.4.53.16.24.29.47.41.68l1.6,2.98h-1.5l-1.4-2.64c-.33-.64-.77-1.2-1.31-1.68h-1.32v4.32ZM67.85,144.07h1.28c.53,0,.94-.08,1.22-.25.28-.17.5-.41.67-.73.16-.32.24-.66.24-1.02,0-.31-.06-.59-.19-.84s-.32-.46-.57-.62-.68-.25-1.28-.25h-1.37v3.72Z"/>
      <path class="cls-3" d="M85.07,140.95l-3.39,8.44-2.32.04,4.24-10.13,2.31.05,3.8,10.05h-1.42"/>
      <path class="cls-3" d="M104.76,139.34h1.22l-4.1,10.05-2.25.04-4.05-10.13,2.59.05,3.19,8.42,3.41-8.42Z"/>
      <path class="cls-3" d="M112.52,149.42v-10.13l6.92.05v1.1h-4.37v3.16h3.82v1.01h-3.82v3.66h4.73v1.1l-7.27.04Z"/>
      <path class="cls-3" d="M129.22,149.39l-2.52.04v-10.13l2.61.05,4.59,7.14.42.79-.02-.79v-7.14h1.21v10.05h-1.29l-4.6-7.17-.42-.81.02.81v7.17Z"/>
    </g>
  </g>
</svg>