<?xml version="1.0" encoding="UTF-8"?>
<svg id="Layer_2" data-name="Layer 2" xmlns="http://www.w3.org/2000/svg" viewBox="0 0 179.85 179.85">
  <defs>
    <style>
      .cls-1 {
        fill: #f2f2f2;
      }

      .cls-2, .cls-3 {
        fill: #1a1a1a;
      }

      .cls-3 {
        stroke: #1a1a1a;
        stroke-miterlimit: 10;
        stroke-width: 10px;
      }
    </style>
  </defs>
  <g id="Layer_2-2" data-name="Layer 2">
    <g>
      <circle class="cls-2" cx="89.93" cy="89.93" r="89.93"/>
      <path class="cls-3" d="M159.04,42.56c-53.16,29-76.04,67.53-78.93,117.57-.22,3.77.17,9.11.56,12.82"/>
      <path class="cls-1" d="M114.49,57.49s-4.05-1.99-12.04,0c0,0-9.5-4.23-22.93,14.68l3.83-.66-5.1,12.36,2.12,3.38h0c2.53,4.23,6.9,13.74,9.64,19.94,2.16-5.12,4.22-9.67,6.66-14.17l5.68-9.34c.2-.29.39-.57.59-.87l-.3-2.86c-.51-2.49-1.97-6.07-1.85-8.56.08-.46.18-.93.3-1.4,0-.02.01-.03.02-.05h0c1.21-4.46,4.8-9.17,13.4-12.45Z"/>
      <path class="cls-1" d="M41.39,101.33l3.56,12.31c17.85,9.47,27.38,21.36,33.92,36.92.13-3.03.37-6.05.74-9.05-7.92-17.56-19.69-29.74-38.22-40.18Z"/>
      <path class="cls-1" d="M34.49,77.48l4.93,17.06c18.88,10.67,33.46,25.64,41.34,43.06.54-3.35,1.23-6.66,2.06-9.95-9.49-20.16-26.46-37.54-48.33-50.16Z"/>
      <g>
        <path class="cls-1" d="M11.73,38.23c-.12-.07-.24-.13-.36-.2.08.08.15.16.23.24l.14-.04Z"/>
        <path class="cls-1" d="M25.5,46.38l6.15,21.25c23.88,14.96,42.15,34,52.42,55.5.99-3.33,2.13-6.64,3.42-9.9-12.13-25.86-33.67-48.7-61.99-66.85Z"/>
      </g>
      <path class="cls-1" d="M93.89,154.85c4.44-24.67,21.77-46.15,46.53-60.2l4.93-17.05c-31.1,18.01-52.27,45.68-56,77.25h4.54Z"/>
      <path class="cls-1" d="M87.06,154.85c3.28-34.38,26.17-65.11,61.14-87.08l6.17-21.35c-42.65,27.45-70.03,65.76-72.58,108.43h5.27Z"/>
      <path class="cls-1" d="M99.7,154.85c4.44-17.26,17.43-32.03,35.28-41.35l3.54-12.24c-22.49,12.05-38.45,31.29-42.75,53.59h3.94Z"/>
    </g>
  </g>
</svg>