<?xml version="1.0" encoding="UTF-8"?>
<svg id="Layer_2" data-name="Layer 2" xmlns="http://www.w3.org/2000/svg" viewBox="0 0 498.43 432.9">
  <defs>
    <style>
      .cls-1 {
        fill: none;
        stroke: #fff;
        stroke-miterlimit: 10;
        stroke-width: 10px;
      }

      .cls-2 {
        fill: #1a1a1a;
      }
    </style>
  </defs>
  <g id="Layer_2-2" data-name="Layer 2">
    <path class="cls-1" d="M496.03,4.39C328.57,95.74,225.65,234.39,216.55,392.02c-.69,11.88.55,28.68,1.75,40.37"/>
    <path class="cls-2" d="M324.83,68.69s-12.77-6.27-37.92,0c0,0-29.93-13.32-72.24,46.24l12.75-1.83-16.74,38.67,6.67,10.64-.03.02c7.96,13.31,21.72,43.26,30.38,62.78,6.79-16.14,13.29-30.45,20.97-44.64l17.9-29.42c.61-.91,1.22-1.81,1.85-2.73l-.96-9c-1.59-7.83-6.2-19.11-5.83-26.97.24-1.46.56-2.93.95-4.41.02-.05.04-.1.06-.15l-.03.02c3.81-14.08,15.12-28.91,42.21-39.24Z"/>
    <path class="cls-2" d="M94.57,206.8l11.22,38.79c56.23,29.83,86.23,67.28,106.84,116.29.4-9.56,1.18-19.06,2.34-28.51-24.95-55.32-62.03-93.67-120.4-126.57Z"/>
    <path class="cls-2" d="M72.84,131.67l15.54,53.73c59.47,33.6,105.4,80.76,130.21,135.63,1.69-10.54,3.86-20.99,6.5-31.36-29.91-63.5-83.36-118.27-152.24-157.99Z"/>
    <g>
      <path class="cls-2" d="M1.15,8.02c-.38-.21-.76-.42-1.15-.63.24.26.47.51.71.77l.43-.14Z"/>
      <path class="cls-2" d="M44.51,33.72l19.36,66.95c75.22,47.12,132.76,107.1,165.11,174.82,3.12-10.5,6.72-20.9,10.78-31.19C201.57,162.85,133.7,90.88,44.51,33.72Z"/>
    </g>
    <path class="cls-2" d="M259.96,375.39c14-77.72,68.57-145.36,146.57-189.63l15.53-53.71c-97.97,56.72-164.64,143.9-176.4,243.34h14.3Z"/>
    <path class="cls-2" d="M238.43,375.39c10.32-108.29,82.44-205.1,192.59-274.31l19.45-67.25c-134.33,86.46-220.59,207.15-228.63,341.56h16.6Z"/>
    <path class="cls-2" d="M278.24,375.39c13.98-54.38,54.89-100.91,111.12-130.26l11.15-38.55c-70.84,37.97-121.11,98.55-134.68,168.82h12.41Z"/>
    <path class="cls-2" d="M324.83,68.69s-12.77-6.27-37.92,0c0,0-29.93-13.32-72.24,46.24l12.75-1.83-16.74,38.67,6.67,10.64-.03.02c7.96,13.31,21.72,43.26,30.38,62.78,6.79-16.14,13.29-30.45,20.97-44.64l17.9-29.42c.61-.91,1.22-1.81,1.85-2.73l-.96-9c-1.59-7.83-6.2-19.11-5.83-26.97.24-1.46.56-2.93.95-4.41.02-.05.04-.1.06-.15l-.03.02c3.81-14.08,15.12-28.91,42.21-39.24Z"/>
    <path class="cls-2" d="M324.83,68.69s-12.77-6.27-37.92,0c0,0-29.93-13.32-72.24,46.24l12.75-1.83-16.74,38.67,6.67,10.64-.03.02c7.96,13.31,21.72,43.26,30.38,62.78,6.79-16.14,13.29-30.45,20.97-44.64l17.9-29.42c.61-.91,1.22-1.81,1.85-2.73l-.96-9c-1.59-7.83-6.2-19.11-5.83-26.97.24-1.46.56-2.93.95-4.41.02-.05.04-.1.06-.15l-.03.02c3.81-14.08,15.12-28.91,42.21-39.24Z"/>
  </g>
</svg>