<svg xmlns="http://www.w3.org/2000/svg" xmlns:xlink="http://www.w3.org/1999/xlink" width="0" height="0" style="display:none;"><symbol viewBox="0 0 57.01 55.14" id="ravenicons-A">
  <defs>
    <style>
      .cls-1 {
        fill: #1a1a1a;
      }
    </style>
  </defs>
  <g id="Layer_2-2" data-name="Layer 2">
    <path class="cls-1" d="M31.86,8.74L13.44,54.54l-13.44.6L24,.14l12.38-.14,20.63,54.54h-7.69"></path>
  </g>
</symbol><symbol viewBox="0 0 39.48 55" id="ravenicons-E">
  <defs>
    <style>
      .cls-1 {
        fill: #1a1a1a;
      }
    </style>
  </defs>
  <g id="Layer_2-2" data-name="Layer 2">
    <path class="cls-1" d="M0,55V0l37.56.26v5.99H13.82v17.18h20.74v5.48H13.82v19.89h25.66v5.99l-39.48.2Z"></path>
  </g>
</symbol><symbol viewBox="0 0 47.82 55" id="ravenicons-N">
  <defs>
    <style>
      .cls-1 {
        fill: #1a1a1a;
      }
    </style>
  </defs>
  <g id="Layer_2-2" data-name="Layer 2">
    <path class="cls-1" d="M13.68,54.8l-13.68.2V0l14.19.26,24.92,38.77,2.26,4.29-.11-4.29V.26h6.56v54.54h-7.01L15.83,15.86l-2.26-4.41.11,4.41v38.94Z"></path>
  </g>
</symbol><symbol viewBox="0 0 44.39 55.14" id="ravenicons-R">
  <defs>
    <style>
      .cls-1 {
        fill: #1a1a1a;
      }
    </style>
  </defs>
  <g id="Layer_2-2" data-name="Layer 2">
    <path class="cls-1" d="M14.38,54.54l-13.38.6L0,.14l24.16-.14c4.14,0,7.26.59,9.35,1.78,2.09,1.19,3.75,2.91,4.97,5.17,1.22,2.26,1.84,4.71,1.84,7.35,0,2.15-.42,4.2-1.24,6.16-.83,1.96-1.99,3.73-3.48,5.31-1.49,1.58-3.8,3-6.92,4.24,1.17.64,2.04,1.25,2.63,1.84.58.58,1.3,1.54,2.15,2.85.85,1.32,1.59,2.54,2.23,3.67l8.7,16.16h-8.14l-7.57-14.35c-1.81-3.47-4.18-6.5-7.12-9.1h-7.18v23.45ZM14.38,25.66h6.95c2.9,0,5.12-.45,6.64-1.36,1.53-.9,2.73-2.22,3.62-3.96.88-1.73,1.33-3.58,1.33-5.54,0-1.7-.35-3.22-1.05-4.58s-1.73-2.49-3.11-3.39-3.68-1.36-6.92-1.36h-7.46v20.18Z"></path>
  </g>
</symbol><symbol viewBox="0 0 56.48 55" id="ravenicons-V">
  <defs>
    <style>
      .cls-1 {
        fill: #1a1a1a;
      }
    </style>
  </defs>
  <g id="Layer_2-2" data-name="Layer 2">
    <path class="cls-1" d="M49.87.26h6.61l-22.27,54.54-12.22.2L0,0l14.04.26,17.29,45.72L49.87.26Z"></path>
  </g>
</symbol></svg>