<?xml version="1.0" encoding="UTF-8"?>
<svg id="Layer_2" data-name="Layer 2" xmlns="http://www.w3.org/2000/svg" viewBox="0 0 208.28 178.71">
  <defs>
    <style>
      .cls-1 {
        fill: none;
        stroke: #fff;
        stroke-miterlimit: 10;
        stroke-width: 3px;
      }

      .cls-2 {
        fill: #1a1a1a;
      }
    </style>
  </defs>
  <g id="Layer_2-2" data-name="Layer 2">
    <path class="cls-2" d="M142.2,21.29s-6.55-3.23-19.45,0c0,0-15.36-6.86-37.07,23.82l5.4-1.49-7.44,20.47,3.42,5.48h-.01c4.08,6.87,12.62,21.2,17.06,31.26,3.49-8.31,5.34-14.59,9.29-21.9l9.19-15.16c.32-.47.62-.93.95-1.4l-.49-4.64c-.82-4.03-3.18-9.85-2.99-13.89.12-.75.29-1.51.49-2.27.01-.03.02-.05.03-.08h-.02c1.96-7.24,7.76-14.88,21.66-20.2Z"/>
    <path class="cls-2" d="M0,0l31.68,108.9c36.6,27.9,36.29,28.03,54.9,60.73-2.02-8.32,9.38-55.72,13.6-61.14C80.58,66.53,45.76,29.45,0,0Z"/>
    <path class="cls-2" d="M120.08,176.17c12.1-31.77,19.54-44.85,56.76-67.27L208.28.06c-68.92,44.54-113.18,106.72-117.31,175.97l29.1.14Z"/>
    <path class="cls-1" d="M14.46,59.25s54.64,34.22,79.06,78.36"/>
    <path class="cls-1" d="M106.54,178.48s14.65-93.18,94.42-127.5"/>
  </g>
</svg>